<svg width="474" height="762" viewBox="0 0 474 762" fill="none" xmlns="http://www.w3.org/2000/svg">
<path d="M301.29 759C301.29 759 454.42 726.57 460.727 639.926C467.034 553.283 229.129 622.74 324.369 441.926C419.61 261.113 505.687 256.637 460.727 143.926C415.767 31.2153 295.04 -27.9532 154.79 16.8005C14.5387 61.5541 1.33658 348.926 1.33658 348.926" stroke="#D0D5F6" stroke-width="2"/>
<path d="M259.3 759C259.3 759 379.425 730.519 384.372 654.425C389.32 578.332 202.693 639.331 277.406 480.535C352.118 321.738 419.641 317.808 384.372 218.821C349.103 119.835 254.398 67.8709 144.377 107.175C34.3565 146.479 24 398.859 24 398.859" stroke="#D0D5F6" stroke-width="2"/>
<path d="M223.065 761C223.065 761 313.97 736.159 317.714 669.792C321.458 603.425 180.227 656.627 236.766 518.128C293.305 379.629 344.404 376.201 317.714 289.867C291.024 203.532 219.355 158.211 136.096 192.491C52.8374 226.771 45 446.892 45 446.892" stroke="#D0D5F6" stroke-width="2"/>
</svg>
